<mxfile host="app.diagrams.net" modified="2024-01-01T11:30:36.572Z" agent="Mozilla/5.0 (Windows NT 10.0; Win64; x64) AppleWebKit/537.36 (KHTML, like Gecko) Chrome/120.0.0.0 Safari/537.36" etag="52M1MDE0j2WIqvSNeMMX" version="22.1.16" type="device">
  <diagram name="Page-1" id="2YBvvXClWsGukQMizWep">
    <mxGraphModel dx="2524" dy="746" grid="1" gridSize="10" guides="1" tooltips="1" connect="1" arrows="1" fold="1" page="1" pageScale="1" pageWidth="850" pageHeight="1100" math="0" shadow="0">
      <root>
        <mxCell id="0" />
        <mxCell id="1" parent="0" />
        <mxCell id="RbzXPUkc1lSmBt4J0QIF-1" value="Web App" style="shape=umlLifeline;perimeter=lifelinePerimeter;whiteSpace=wrap;html=1;container=0;dropTarget=0;collapsible=0;recursiveResize=0;outlineConnect=0;portConstraint=eastwest;newEdgeStyle={&quot;edgeStyle&quot;:&quot;elbowEdgeStyle&quot;,&quot;elbow&quot;:&quot;vertical&quot;,&quot;curved&quot;:0,&quot;rounded&quot;:0};" parent="1" vertex="1">
          <mxGeometry x="80" y="40" width="100" height="910" as="geometry" />
        </mxCell>
        <mxCell id="RbzXPUkc1lSmBt4J0QIF-3" value="" style="html=1;points=[];perimeter=orthogonalPerimeter;outlineConnect=0;targetShapes=umlLifeline;portConstraint=eastwest;newEdgeStyle={&quot;edgeStyle&quot;:&quot;elbowEdgeStyle&quot;,&quot;elbow&quot;:&quot;vertical&quot;,&quot;curved&quot;:0,&quot;rounded&quot;:0};" parent="RbzXPUkc1lSmBt4J0QIF-1" vertex="1">
          <mxGeometry x="45" y="240" width="10" height="500" as="geometry" />
        </mxCell>
        <mxCell id="RbzXPUkc1lSmBt4J0QIF-4" value="" style="html=1;points=[];perimeter=orthogonalPerimeter;outlineConnect=0;targetShapes=umlLifeline;portConstraint=eastwest;newEdgeStyle={&quot;edgeStyle&quot;:&quot;elbowEdgeStyle&quot;,&quot;elbow&quot;:&quot;vertical&quot;,&quot;curved&quot;:0,&quot;rounded&quot;:0};" parent="RbzXPUkc1lSmBt4J0QIF-1" vertex="1">
          <mxGeometry x="45" y="690" width="10" height="50" as="geometry" />
        </mxCell>
        <mxCell id="RbzXPUkc1lSmBt4J0QIF-5" value="" style="html=1;points=[];perimeter=orthogonalPerimeter;outlineConnect=0;targetShapes=umlLifeline;portConstraint=eastwest;newEdgeStyle={&quot;edgeStyle&quot;:&quot;elbowEdgeStyle&quot;,&quot;elbow&quot;:&quot;vertical&quot;,&quot;curved&quot;:0,&quot;rounded&quot;:0};" parent="RbzXPUkc1lSmBt4J0QIF-1" vertex="1">
          <mxGeometry x="45" y="852" width="10" height="50" as="geometry" />
        </mxCell>
        <mxCell id="RbzXPUkc1lSmBt4J0QIF-2" value="" style="html=1;points=[];perimeter=orthogonalPerimeter;outlineConnect=0;targetShapes=umlLifeline;portConstraint=eastwest;newEdgeStyle={&quot;edgeStyle&quot;:&quot;elbowEdgeStyle&quot;,&quot;elbow&quot;:&quot;vertical&quot;,&quot;curved&quot;:0,&quot;rounded&quot;:0};" parent="RbzXPUkc1lSmBt4J0QIF-1" vertex="1">
          <mxGeometry x="45" y="140" width="10" height="30" as="geometry" />
        </mxCell>
        <mxCell id="RbzXPUkc1lSmBt4J0QIF-70" value="" style="html=1;points=[];perimeter=orthogonalPerimeter;outlineConnect=0;targetShapes=umlLifeline;portConstraint=eastwest;newEdgeStyle={&quot;edgeStyle&quot;:&quot;elbowEdgeStyle&quot;,&quot;elbow&quot;:&quot;vertical&quot;,&quot;curved&quot;:0,&quot;rounded&quot;:0};" parent="RbzXPUkc1lSmBt4J0QIF-1" vertex="1">
          <mxGeometry x="45" y="190" width="10" height="20" as="geometry" />
        </mxCell>
        <mxCell id="RbzXPUkc1lSmBt4J0QIF-9" value="&lt;font style=&quot;font-size: 9px;&quot;&gt;1 : click(tournamentButton)&lt;/font&gt;" style="html=1;verticalAlign=bottom;endArrow=block;edgeStyle=elbowEdgeStyle;elbow=horizontal;curved=0;rounded=0;" parent="RbzXPUkc1lSmBt4J0QIF-1" target="RbzXPUkc1lSmBt4J0QIF-2" edge="1">
          <mxGeometry relative="1" as="geometry">
            <mxPoint x="-165" y="140" as="sourcePoint" />
            <Array as="points">
              <mxPoint x="-50" y="140" />
            </Array>
            <mxPoint x="35" y="140" as="targetPoint" />
          </mxGeometry>
        </mxCell>
        <mxCell id="RbzXPUkc1lSmBt4J0QIF-16" value="&lt;font style=&quot;font-size: 9px;&quot;&gt;2 : showPage(tournamentPage)&lt;/font&gt;" style="html=1;verticalAlign=bottom;endArrow=openThin;dashed=1;endSize=8;edgeStyle=elbowEdgeStyle;elbow=vertical;curved=0;rounded=0;endFill=0;" parent="RbzXPUkc1lSmBt4J0QIF-1" source="RbzXPUkc1lSmBt4J0QIF-2" edge="1">
          <mxGeometry relative="1" as="geometry">
            <mxPoint x="-165" y="170" as="targetPoint" />
            <Array as="points">
              <mxPoint x="-75" y="170" />
            </Array>
            <mxPoint y="170" as="sourcePoint" />
          </mxGeometry>
        </mxCell>
        <mxCell id="RbzXPUkc1lSmBt4J0QIF-69" value="&lt;font style=&quot;font-size: 9px;&quot;&gt;3 : click(closeTournamentButton)&lt;/font&gt;" style="html=1;verticalAlign=bottom;endArrow=block;edgeStyle=elbowEdgeStyle;elbow=horizontal;curved=0;rounded=0;" parent="RbzXPUkc1lSmBt4J0QIF-1" edge="1">
          <mxGeometry relative="1" as="geometry">
            <mxPoint x="-165" y="190" as="sourcePoint" />
            <Array as="points">
              <mxPoint x="-50" y="190" />
            </Array>
            <mxPoint x="45" y="190" as="targetPoint" />
          </mxGeometry>
        </mxCell>
        <mxCell id="RbzXPUkc1lSmBt4J0QIF-71" value="&lt;font style=&quot;font-size: 9px;&quot;&gt;4 : showPage(confirmationRequestModal)&lt;/font&gt;" style="html=1;verticalAlign=bottom;endArrow=openThin;dashed=1;endSize=8;edgeStyle=elbowEdgeStyle;elbow=vertical;curved=0;rounded=0;endFill=0;" parent="RbzXPUkc1lSmBt4J0QIF-1" source="RbzXPUkc1lSmBt4J0QIF-70" edge="1">
          <mxGeometry relative="1" as="geometry">
            <mxPoint x="-165" y="210" as="targetPoint" />
            <Array as="points">
              <mxPoint x="-75" y="210" />
            </Array>
            <mxPoint x="45" y="210" as="sourcePoint" />
          </mxGeometry>
        </mxCell>
        <mxCell id="RbzXPUkc1lSmBt4J0QIF-6" value="&lt;font style=&quot;font-size: 9px;&quot;&gt;Educator&lt;/font&gt;" style="shape=umlActor;verticalLabelPosition=bottom;verticalAlign=top;html=1;outlineConnect=0;" parent="1" vertex="1">
          <mxGeometry x="-100" y="40" width="20" height="40" as="geometry" />
        </mxCell>
        <mxCell id="RbzXPUkc1lSmBt4J0QIF-7" value="" style="endArrow=none;dashed=1;html=1;rounded=0;" parent="1" source="RbzXPUkc1lSmBt4J0QIF-8" edge="1">
          <mxGeometry width="50" height="50" relative="1" as="geometry">
            <mxPoint x="-90" y="350" as="sourcePoint" />
            <mxPoint x="-90" y="100" as="targetPoint" />
          </mxGeometry>
        </mxCell>
        <mxCell id="RbzXPUkc1lSmBt4J0QIF-8" value="" style="html=1;points=[];perimeter=orthogonalPerimeter;outlineConnect=0;targetShapes=umlLifeline;portConstraint=eastwest;newEdgeStyle={&quot;edgeStyle&quot;:&quot;elbowEdgeStyle&quot;,&quot;elbow&quot;:&quot;vertical&quot;,&quot;curved&quot;:0,&quot;rounded&quot;:0};" parent="1" vertex="1">
          <mxGeometry x="-95" y="110" width="10" height="830" as="geometry" />
        </mxCell>
        <mxCell id="RbzXPUkc1lSmBt4J0QIF-10" value="Tournament Manager" style="shape=umlLifeline;perimeter=lifelinePerimeter;whiteSpace=wrap;html=1;container=1;dropTarget=0;collapsible=0;recursiveResize=0;outlineConnect=0;portConstraint=eastwest;newEdgeStyle={&quot;curved&quot;:0,&quot;rounded&quot;:0};" parent="1" vertex="1">
          <mxGeometry x="300" y="40" width="100" height="910" as="geometry" />
        </mxCell>
        <mxCell id="RbzXPUkc1lSmBt4J0QIF-11" value="" style="html=1;points=[];perimeter=orthogonalPerimeter;outlineConnect=0;targetShapes=umlLifeline;portConstraint=eastwest;newEdgeStyle={&quot;edgeStyle&quot;:&quot;elbowEdgeStyle&quot;,&quot;elbow&quot;:&quot;vertical&quot;,&quot;curved&quot;:0,&quot;rounded&quot;:0};" parent="RbzXPUkc1lSmBt4J0QIF-10" vertex="1">
          <mxGeometry x="45" y="250" width="10" height="420" as="geometry" />
        </mxCell>
        <mxCell id="RbzXPUkc1lSmBt4J0QIF-12" value="" style="html=1;points=[[0,0,0,0,5],[0,1,0,0,-5],[1,0,0,0,5],[1,1,0,0,-5]];perimeter=orthogonalPerimeter;outlineConnect=0;targetShapes=umlLifeline;portConstraint=eastwest;newEdgeStyle={&quot;curved&quot;:0,&quot;rounded&quot;:0};" parent="RbzXPUkc1lSmBt4J0QIF-10" vertex="1">
          <mxGeometry x="50" y="330" width="10" height="20" as="geometry" />
        </mxCell>
        <mxCell id="RbzXPUkc1lSmBt4J0QIF-13" value="&lt;font style=&quot;font-size: 9px;&quot;&gt;9 : findActiveBattle(tournamentId)&lt;/font&gt;" style="html=1;align=left;spacingLeft=2;endArrow=block;rounded=0;edgeStyle=orthogonalEdgeStyle;curved=0;rounded=0;" parent="RbzXPUkc1lSmBt4J0QIF-10" target="RbzXPUkc1lSmBt4J0QIF-12" edge="1">
          <mxGeometry x="0.0133" relative="1" as="geometry">
            <mxPoint x="55" y="310" as="sourcePoint" />
            <Array as="points">
              <mxPoint x="85" y="310" />
              <mxPoint x="85" y="330" />
            </Array>
            <mxPoint as="offset" />
          </mxGeometry>
        </mxCell>
        <mxCell id="RbzXPUkc1lSmBt4J0QIF-14" value="" style="html=1;points=[];perimeter=orthogonalPerimeter;outlineConnect=0;targetShapes=umlLifeline;portConstraint=eastwest;newEdgeStyle={&quot;edgeStyle&quot;:&quot;elbowEdgeStyle&quot;,&quot;elbow&quot;:&quot;vertical&quot;,&quot;curved&quot;:0,&quot;rounded&quot;:0};" parent="RbzXPUkc1lSmBt4J0QIF-10" vertex="1">
          <mxGeometry x="45" y="852" width="10" height="30" as="geometry" />
        </mxCell>
        <mxCell id="RbzXPUkc1lSmBt4J0QIF-15" value="" style="html=1;points=[];perimeter=orthogonalPerimeter;outlineConnect=0;targetShapes=umlLifeline;portConstraint=eastwest;newEdgeStyle={&quot;edgeStyle&quot;:&quot;elbowEdgeStyle&quot;,&quot;elbow&quot;:&quot;vertical&quot;,&quot;curved&quot;:0,&quot;rounded&quot;:0};" parent="RbzXPUkc1lSmBt4J0QIF-10" vertex="1">
          <mxGeometry x="45" y="690" width="10" height="30" as="geometry" />
        </mxCell>
        <mxCell id="RbzXPUkc1lSmBt4J0QIF-17" value="Account Manager" style="shape=umlLifeline;perimeter=lifelinePerimeter;whiteSpace=wrap;html=1;container=1;dropTarget=0;collapsible=0;recursiveResize=0;outlineConnect=0;portConstraint=eastwest;newEdgeStyle={&quot;curved&quot;:0,&quot;rounded&quot;:0};" parent="1" vertex="1">
          <mxGeometry x="490" y="40" width="100" height="910" as="geometry" />
        </mxCell>
        <mxCell id="RbzXPUkc1lSmBt4J0QIF-18" value="" style="html=1;points=[];perimeter=orthogonalPerimeter;outlineConnect=0;targetShapes=umlLifeline;portConstraint=eastwest;newEdgeStyle={&quot;edgeStyle&quot;:&quot;elbowEdgeStyle&quot;,&quot;elbow&quot;:&quot;vertical&quot;,&quot;curved&quot;:0,&quot;rounded&quot;:0};" parent="RbzXPUkc1lSmBt4J0QIF-17" vertex="1">
          <mxGeometry x="44.5" y="260" width="10" height="30" as="geometry" />
        </mxCell>
        <mxCell id="RbzXPUkc1lSmBt4J0QIF-19" value="&lt;font style=&quot;font-size: 9px;&quot;&gt;7 : checkUser(sessionData)&lt;/font&gt;" style="html=1;verticalAlign=bottom;endArrow=block;edgeStyle=elbowEdgeStyle;elbow=vertical;curved=0;rounded=0;" parent="RbzXPUkc1lSmBt4J0QIF-17" target="RbzXPUkc1lSmBt4J0QIF-18" edge="1">
          <mxGeometry relative="1" as="geometry">
            <mxPoint x="-134.5" y="260" as="sourcePoint" />
            <Array as="points">
              <mxPoint x="0.5" y="260" />
            </Array>
            <mxPoint x="10.5" y="280" as="targetPoint" />
            <mxPoint as="offset" />
          </mxGeometry>
        </mxCell>
        <mxCell id="RbzXPUkc1lSmBt4J0QIF-20" value="&lt;font style=&quot;font-size: 9px;&quot;&gt;8 : outcomePermissionCheck&lt;/font&gt;" style="html=1;verticalAlign=bottom;endArrow=openThin;dashed=1;endSize=8;edgeStyle=elbowEdgeStyle;elbow=vertical;curved=0;rounded=0;endFill=0;" parent="RbzXPUkc1lSmBt4J0QIF-17" source="RbzXPUkc1lSmBt4J0QIF-18" edge="1">
          <mxGeometry relative="1" as="geometry">
            <mxPoint x="-134.5" y="290" as="targetPoint" />
            <Array as="points">
              <mxPoint x="-49.5" y="290" />
            </Array>
            <mxPoint x="15.5" y="290" as="sourcePoint" />
          </mxGeometry>
        </mxCell>
        <mxCell id="RbzXPUkc1lSmBt4J0QIF-51" value="&lt;font style=&quot;font-size: 9px;&quot;&gt;5 : click(confirmButton)&lt;/font&gt;" style="html=1;verticalAlign=bottom;endArrow=block;edgeStyle=elbowEdgeStyle;elbow=horizontal;curved=0;rounded=0;" parent="RbzXPUkc1lSmBt4J0QIF-17" edge="1">
          <mxGeometry relative="1" as="geometry">
            <mxPoint x="-575" y="240" as="sourcePoint" />
            <Array as="points">
              <mxPoint x="-460" y="240" />
            </Array>
            <mxPoint x="-365" y="240" as="targetPoint" />
          </mxGeometry>
        </mxCell>
        <mxCell id="RbzXPUkc1lSmBt4J0QIF-52" value="&lt;font style=&quot;font-size: 9px;&quot;&gt;6 :&amp;nbsp;&lt;/font&gt;&lt;font style=&quot;font-size: 9px;&quot;&gt;closeTournament(tournamentId, userId)&lt;/font&gt;" style="html=1;verticalAlign=bottom;endArrow=block;edgeStyle=elbowEdgeStyle;elbow=vertical;curved=0;rounded=0;" parent="RbzXPUkc1lSmBt4J0QIF-17" edge="1">
          <mxGeometry relative="1" as="geometry">
            <mxPoint x="-355" y="250" as="sourcePoint" />
            <Array as="points">
              <mxPoint x="-270" y="250" />
            </Array>
            <mxPoint x="-145" y="250" as="targetPoint" />
            <mxPoint as="offset" />
          </mxGeometry>
        </mxCell>
        <mxCell id="RbzXPUkc1lSmBt4J0QIF-21" value="DBMS" style="shape=umlLifeline;perimeter=lifelinePerimeter;whiteSpace=wrap;html=1;container=1;dropTarget=0;collapsible=0;recursiveResize=0;outlineConnect=0;portConstraint=eastwest;newEdgeStyle={&quot;curved&quot;:0,&quot;rounded&quot;:0};" parent="1" vertex="1">
          <mxGeometry x="610" y="40" width="100" height="910" as="geometry" />
        </mxCell>
        <mxCell id="RbzXPUkc1lSmBt4J0QIF-22" value="" style="html=1;points=[];perimeter=orthogonalPerimeter;outlineConnect=0;targetShapes=umlLifeline;portConstraint=eastwest;newEdgeStyle={&quot;edgeStyle&quot;:&quot;elbowEdgeStyle&quot;,&quot;elbow&quot;:&quot;vertical&quot;,&quot;curved&quot;:0,&quot;rounded&quot;:0};" parent="RbzXPUkc1lSmBt4J0QIF-21" vertex="1">
          <mxGeometry x="45" y="379" width="10" height="20" as="geometry" />
        </mxCell>
        <mxCell id="RbzXPUkc1lSmBt4J0QIF-23" value="Notification Manager" style="shape=umlLifeline;perimeter=lifelinePerimeter;whiteSpace=wrap;html=1;container=1;dropTarget=0;collapsible=0;recursiveResize=0;outlineConnect=0;portConstraint=eastwest;newEdgeStyle={&quot;curved&quot;:0,&quot;rounded&quot;:0};" parent="1" vertex="1">
          <mxGeometry x="790" y="40" width="110" height="910" as="geometry" />
        </mxCell>
        <mxCell id="RbzXPUkc1lSmBt4J0QIF-24" value="Notification APIs" style="shape=umlLifeline;perimeter=lifelinePerimeter;whiteSpace=wrap;html=1;container=1;dropTarget=0;collapsible=0;recursiveResize=0;outlineConnect=0;portConstraint=eastwest;newEdgeStyle={&quot;curved&quot;:0,&quot;rounded&quot;:0};" parent="1" vertex="1">
          <mxGeometry x="920" y="40" width="100" height="910" as="geometry" />
        </mxCell>
        <mxCell id="RbzXPUkc1lSmBt4J0QIF-25" value="&lt;p style=&quot;line-height: 120%; font-size: 9px;&quot;&gt;&lt;b&gt;alt: &lt;/b&gt;outcomePermissionCheck == true&lt;/p&gt;" style="shape=umlFrame;whiteSpace=wrap;html=1;pointerEvents=0;width=110;height=40;verticalAlign=middle;horizontal=1;labelPosition=center;verticalLabelPosition=middle;align=center;" parent="1" vertex="1">
          <mxGeometry x="-210" y="340" width="1230" height="610" as="geometry" />
        </mxCell>
        <mxCell id="RbzXPUkc1lSmBt4J0QIF-26" value="[then]" style="text;html=1;strokeColor=none;fillColor=none;align=center;verticalAlign=middle;whiteSpace=wrap;rounded=0;fontSize=10;" parent="1" vertex="1">
          <mxGeometry x="-185" y="384" width="35" height="10" as="geometry" />
        </mxCell>
        <mxCell id="RbzXPUkc1lSmBt4J0QIF-27" value="[else]" style="text;html=1;strokeColor=none;fillColor=none;align=center;verticalAlign=middle;whiteSpace=wrap;rounded=0;fontSize=10;" parent="1" vertex="1">
          <mxGeometry x="-170" y="820.0000000000001" width="35" height="10" as="geometry" />
        </mxCell>
        <mxCell id="RbzXPUkc1lSmBt4J0QIF-28" value="&lt;font style=&quot;font-size: 9px;&quot;&gt;23 : outcomeMessage&lt;/font&gt;" style="html=1;verticalAlign=bottom;endArrow=openThin;dashed=1;endSize=8;edgeStyle=elbowEdgeStyle;elbow=horizontal;curved=0;rounded=0;endFill=0;" parent="1" source="RbzXPUkc1lSmBt4J0QIF-36" target="RbzXPUkc1lSmBt4J0QIF-37" edge="1">
          <mxGeometry relative="1" as="geometry">
            <mxPoint x="135" y="835" as="targetPoint" />
            <Array as="points">
              <mxPoint x="240" y="840" />
            </Array>
            <mxPoint x="264" y="878.1800000000001" as="sourcePoint" />
          </mxGeometry>
        </mxCell>
        <mxCell id="RbzXPUkc1lSmBt4J0QIF-29" value="&lt;font style=&quot;font-size: 9px;&quot;&gt;24 : showMessage(notClosableTournament)&lt;/font&gt;" style="html=1;verticalAlign=bottom;endArrow=openThin;dashed=1;endSize=8;edgeStyle=elbowEdgeStyle;elbow=vertical;curved=0;rounded=0;endFill=0;" parent="1" edge="1">
          <mxGeometry relative="1" as="geometry">
            <mxPoint x="-85" y="850" as="targetPoint" />
            <Array as="points">
              <mxPoint x="30" y="850" />
            </Array>
            <mxPoint x="125" y="850" as="sourcePoint" />
          </mxGeometry>
        </mxCell>
        <mxCell id="RbzXPUkc1lSmBt4J0QIF-30" value="[then]" style="text;html=1;strokeColor=none;fillColor=none;align=center;verticalAlign=middle;whiteSpace=wrap;rounded=0;fontSize=10;" parent="1" vertex="1">
          <mxGeometry x="-150" y="495.41" width="35" height="10" as="geometry" />
        </mxCell>
        <mxCell id="RbzXPUkc1lSmBt4J0QIF-31" value="" style="html=1;points=[];perimeter=orthogonalPerimeter;outlineConnect=0;targetShapes=umlLifeline;portConstraint=eastwest;newEdgeStyle={&quot;edgeStyle&quot;:&quot;elbowEdgeStyle&quot;,&quot;elbow&quot;:&quot;vertical&quot;,&quot;curved&quot;:0,&quot;rounded&quot;:0};" parent="1" vertex="1">
          <mxGeometry x="840" y="480.41" width="10" height="110" as="geometry" />
        </mxCell>
        <mxCell id="RbzXPUkc1lSmBt4J0QIF-32" value="&lt;p style=&quot;line-height: 120%; font-size: 9px;&quot;&gt;&lt;b&gt;loop: &lt;/b&gt;sendNotification&amp;nbsp; &amp;nbsp;&lt;span style=&quot;background-color: initial;&quot;&gt;Outcome == false&lt;/span&gt;&lt;/p&gt;" style="shape=umlFrame;whiteSpace=wrap;html=1;pointerEvents=0;width=100;height=28;verticalAlign=middle;horizontal=1;labelPosition=center;verticalLabelPosition=middle;align=center;" parent="1" vertex="1">
          <mxGeometry x="240" y="461.82" width="750" height="138.18" as="geometry" />
        </mxCell>
        <mxCell id="RbzXPUkc1lSmBt4J0QIF-33" value="&lt;font style=&quot;font-size: 9px;&quot;&gt;17 : outcomeMessage&lt;/font&gt;" style="html=1;verticalAlign=bottom;endArrow=openThin;dashed=1;endSize=8;edgeStyle=elbowEdgeStyle;elbow=horizontal;curved=0;rounded=0;endFill=0;" parent="1" edge="1">
          <mxGeometry relative="1" as="geometry">
            <mxPoint x="135" y="630" as="targetPoint" />
            <Array as="points">
              <mxPoint x="310" y="630" />
            </Array>
            <mxPoint x="345" y="630" as="sourcePoint" />
          </mxGeometry>
        </mxCell>
        <mxCell id="RbzXPUkc1lSmBt4J0QIF-34" value="&lt;font style=&quot;font-size: 8.5px;&quot;&gt;18 : showMessage(tournamentSuccessfullyClosed)&lt;/font&gt;" style="html=1;verticalAlign=bottom;endArrow=openThin;dashed=1;endSize=8;edgeStyle=elbowEdgeStyle;elbow=vertical;curved=0;rounded=0;endFill=0;" parent="1" edge="1">
          <mxGeometry relative="1" as="geometry">
            <mxPoint x="-86" y="660" as="targetPoint" />
            <Array as="points">
              <mxPoint x="119" y="660" />
            </Array>
            <mxPoint x="124" y="660" as="sourcePoint" />
          </mxGeometry>
        </mxCell>
        <mxCell id="RbzXPUkc1lSmBt4J0QIF-35" value="[else]" style="text;html=1;strokeColor=none;fillColor=none;align=center;verticalAlign=middle;whiteSpace=wrap;rounded=0;fontSize=10;" parent="1" vertex="1">
          <mxGeometry x="-150" y="740" width="35" height="10" as="geometry" />
        </mxCell>
        <mxCell id="RbzXPUkc1lSmBt4J0QIF-36" value="" style="html=1;points=[];perimeter=orthogonalPerimeter;outlineConnect=0;targetShapes=umlLifeline;portConstraint=eastwest;newEdgeStyle={&quot;edgeStyle&quot;:&quot;elbowEdgeStyle&quot;,&quot;elbow&quot;:&quot;vertical&quot;,&quot;curved&quot;:0,&quot;rounded&quot;:0};" parent="1" vertex="1">
          <mxGeometry x="345" y="810" width="10" height="30" as="geometry" />
        </mxCell>
        <mxCell id="RbzXPUkc1lSmBt4J0QIF-37" value="" style="html=1;points=[];perimeter=orthogonalPerimeter;outlineConnect=0;targetShapes=umlLifeline;portConstraint=eastwest;newEdgeStyle={&quot;edgeStyle&quot;:&quot;elbowEdgeStyle&quot;,&quot;elbow&quot;:&quot;vertical&quot;,&quot;curved&quot;:0,&quot;rounded&quot;:0};" parent="1" vertex="1">
          <mxGeometry x="125" y="810" width="10" height="40" as="geometry" />
        </mxCell>
        <mxCell id="RbzXPUkc1lSmBt4J0QIF-38" value="" style="endArrow=none;dashed=1;html=1;rounded=0;" parent="1" edge="1">
          <mxGeometry width="50" height="50" relative="1" as="geometry">
            <mxPoint x="-90" y="950" as="sourcePoint" />
            <mxPoint x="-90" y="940" as="targetPoint" />
          </mxGeometry>
        </mxCell>
        <mxCell id="RbzXPUkc1lSmBt4J0QIF-39" value="&lt;font style=&quot;font-size: 9px;&quot;&gt;10 : updateTournament(query)&lt;/font&gt;" style="html=1;verticalAlign=bottom;endArrow=block;edgeStyle=elbowEdgeStyle;elbow=vertical;curved=0;rounded=0;" parent="1" target="RbzXPUkc1lSmBt4J0QIF-22" edge="1">
          <mxGeometry relative="1" as="geometry">
            <mxPoint x="355" y="420" as="sourcePoint" />
            <Array as="points">
              <mxPoint x="505" y="420" />
            </Array>
            <mxPoint x="694" y="429" as="targetPoint" />
            <mxPoint as="offset" />
          </mxGeometry>
        </mxCell>
        <mxCell id="RbzXPUkc1lSmBt4J0QIF-40" value="&lt;font style=&quot;font-size: 9px;&quot;&gt;11 : outcomeUpdate&lt;/font&gt;" style="html=1;verticalAlign=bottom;endArrow=openThin;dashed=1;endSize=8;edgeStyle=elbowEdgeStyle;elbow=horizontal;curved=0;rounded=0;endFill=0;" parent="1" source="RbzXPUkc1lSmBt4J0QIF-22" edge="1">
          <mxGeometry relative="1" as="geometry">
            <mxPoint x="354" y="439" as="targetPoint" />
            <Array as="points">
              <mxPoint x="610" y="439" />
            </Array>
            <mxPoint x="849" y="438" as="sourcePoint" />
          </mxGeometry>
        </mxCell>
        <mxCell id="RbzXPUkc1lSmBt4J0QIF-41" value="&lt;p style=&quot;line-height: 120%; font-size: 9px;&quot;&gt;&lt;b&gt;alt: &lt;/b&gt;outcomeUpdate == true&lt;/p&gt;" style="shape=umlFrame;whiteSpace=wrap;html=1;pointerEvents=0;width=80;height=40;verticalAlign=middle;horizontal=1;labelPosition=center;verticalLabelPosition=middle;align=center;" parent="1" vertex="1">
          <mxGeometry x="-180" y="450" width="1180" height="340" as="geometry" />
        </mxCell>
        <mxCell id="RbzXPUkc1lSmBt4J0QIF-42" value="&lt;p style=&quot;line-height: 120%; font-size: 9px;&quot;&gt;&lt;b&gt;alt: activeBattleList .size()&lt;/b&gt;&amp;nbsp;== 0&lt;/p&gt;" style="shape=umlFrame;whiteSpace=wrap;html=1;pointerEvents=0;width=90;height=30;verticalAlign=middle;horizontal=1;labelPosition=center;verticalLabelPosition=middle;align=center;" parent="1" vertex="1">
          <mxGeometry x="-200" y="400" width="1210" height="470" as="geometry" />
        </mxCell>
        <mxCell id="RbzXPUkc1lSmBt4J0QIF-43" value="[then]" style="text;html=1;strokeColor=none;fillColor=none;align=center;verticalAlign=middle;whiteSpace=wrap;rounded=0;fontSize=10;" parent="1" vertex="1">
          <mxGeometry x="-170" y="435" width="35" height="10" as="geometry" />
        </mxCell>
        <mxCell id="RbzXPUkc1lSmBt4J0QIF-44" value="[else]" style="text;html=1;strokeColor=none;fillColor=none;align=center;verticalAlign=middle;whiteSpace=wrap;rounded=0;fontSize=10;" parent="1" vertex="1">
          <mxGeometry x="-185" y="900" width="35" height="10" as="geometry" />
        </mxCell>
        <mxCell id="RbzXPUkc1lSmBt4J0QIF-45" value="&lt;font style=&quot;font-size: 9px;&quot;&gt;19 : click(confirmButton)&lt;/font&gt;" style="html=1;verticalAlign=bottom;endArrow=open;edgeStyle=elbowEdgeStyle;elbow=horizontal;curved=0;rounded=0;endFill=0;" parent="1" edge="1">
          <mxGeometry relative="1" as="geometry">
            <mxPoint x="-85" y="684.5799999999999" as="sourcePoint" />
            <Array as="points">
              <mxPoint x="29" y="684.5799999999999" />
            </Array>
            <mxPoint x="125" y="684.5799999999999" as="targetPoint" />
          </mxGeometry>
        </mxCell>
        <mxCell id="RbzXPUkc1lSmBt4J0QIF-46" value="&lt;font style=&quot;font-size: 9px;&quot;&gt;20 : showPage(EducatorTournamentsPage)&lt;/font&gt;" style="html=1;verticalAlign=bottom;endArrow=openThin;dashed=1;endSize=8;edgeStyle=elbowEdgeStyle;elbow=vertical;curved=0;rounded=0;endFill=0;" parent="1" edge="1">
          <mxGeometry relative="1" as="geometry">
            <mxPoint x="-85" y="710" as="targetPoint" />
            <Array as="points">
              <mxPoint x="5" y="710" />
            </Array>
            <mxPoint x="125" y="710" as="sourcePoint" />
          </mxGeometry>
        </mxCell>
        <mxCell id="RbzXPUkc1lSmBt4J0QIF-53" value="&lt;b&gt;ref&lt;/b&gt;" style="shape=umlFrame;whiteSpace=wrap;html=1;pointerEvents=0;width=50;height=15;labelBorderColor=none;labelBackgroundColor=none;fontColor=default;swimlaneFillColor=default;" parent="1" vertex="1">
          <mxGeometry x="-210" y="120" width="1230" height="40" as="geometry" />
        </mxCell>
        <mxCell id="RbzXPUkc1lSmBt4J0QIF-54" value="&lt;b&gt;&lt;font style=&quot;font-size: 20px;&quot;&gt;Login&lt;/font&gt;&lt;/b&gt;" style="text;html=1;strokeColor=none;fillColor=none;align=center;verticalAlign=middle;whiteSpace=wrap;rounded=0;" parent="1" vertex="1">
          <mxGeometry x="395" y="125" width="60" height="30" as="geometry" />
        </mxCell>
        <mxCell id="RbzXPUkc1lSmBt4J0QIF-55" value="&lt;font style=&quot;font-size: 9px;&quot;&gt;12 : sendClosedTournamentNot(tournamentId)&lt;/font&gt;" style="html=1;verticalAlign=bottom;endArrow=block;edgeStyle=elbowEdgeStyle;elbow=vertical;curved=0;rounded=0;" parent="1" target="RbzXPUkc1lSmBt4J0QIF-31" edge="1">
          <mxGeometry relative="1" as="geometry">
            <mxPoint x="355" y="480.41" as="sourcePoint" />
            <Array as="points">
              <mxPoint x="689" y="480.41" />
            </Array>
            <mxPoint x="694" y="480.41" as="targetPoint" />
            <mxPoint as="offset" />
          </mxGeometry>
        </mxCell>
        <mxCell id="RbzXPUkc1lSmBt4J0QIF-56" value="" style="html=1;points=[];perimeter=orthogonalPerimeter;outlineConnect=0;targetShapes=umlLifeline;portConstraint=eastwest;newEdgeStyle={&quot;edgeStyle&quot;:&quot;elbowEdgeStyle&quot;,&quot;elbow&quot;:&quot;vertical&quot;,&quot;curved&quot;:0,&quot;rounded&quot;:0};" parent="1" vertex="1">
          <mxGeometry x="655" y="505.4099999999999" width="10" height="20" as="geometry" />
        </mxCell>
        <mxCell id="RbzXPUkc1lSmBt4J0QIF-57" value="&lt;font style=&quot;font-size: 9px;&quot;&gt;13 : getUserSubscribed(tournamentId)&lt;/font&gt;" style="html=1;verticalAlign=bottom;endArrow=block;endSize=6;edgeStyle=elbowEdgeStyle;elbow=vertical;curved=0;rounded=0;endFill=1;startArrow=none;startFill=0;" parent="1" source="RbzXPUkc1lSmBt4J0QIF-31" target="RbzXPUkc1lSmBt4J0QIF-56" edge="1">
          <mxGeometry relative="1" as="geometry">
            <mxPoint x="704" y="505.41" as="targetPoint" />
            <Array as="points">
              <mxPoint x="780" y="505.41" />
            </Array>
            <mxPoint x="850" y="505.41" as="sourcePoint" />
          </mxGeometry>
        </mxCell>
        <mxCell id="RbzXPUkc1lSmBt4J0QIF-58" value="&lt;font style=&quot;font-size: 9px;&quot;&gt;14 : userList&lt;/font&gt;" style="html=1;verticalAlign=bottom;endArrow=openThin;edgeStyle=elbowEdgeStyle;elbow=vertical;curved=0;rounded=0;endFill=0;dashed=1;endSize=8;" parent="1" source="RbzXPUkc1lSmBt4J0QIF-56" target="RbzXPUkc1lSmBt4J0QIF-31" edge="1">
          <mxGeometry relative="1" as="geometry">
            <mxPoint x="704" y="525.41" as="sourcePoint" />
            <Array as="points">
              <mxPoint x="839" y="525.41" />
            </Array>
            <mxPoint x="883.5" y="525.41" as="targetPoint" />
            <mxPoint as="offset" />
          </mxGeometry>
        </mxCell>
        <mxCell id="RbzXPUkc1lSmBt4J0QIF-59" value="&lt;p style=&quot;line-height: 120%; font-size: 9px;&quot;&gt;&lt;b&gt;loop foreach: &lt;/b&gt;user &lt;b&gt;in &lt;/b&gt;userList&lt;/p&gt;" style="shape=umlFrame;whiteSpace=wrap;html=1;pointerEvents=0;width=100;height=30;verticalAlign=middle;horizontal=1;labelPosition=center;verticalLabelPosition=middle;align=center;" parent="1" vertex="1">
          <mxGeometry x="730" y="540.41" width="250" height="40" as="geometry" />
        </mxCell>
        <mxCell id="RbzXPUkc1lSmBt4J0QIF-60" value="&lt;font style=&quot;font-size: 9px;&quot;&gt;15 : send notification&lt;/font&gt;" style="html=1;verticalAlign=bottom;endArrow=open;edgeStyle=elbowEdgeStyle;elbow=horizontal;curved=0;rounded=0;endFill=0;endSize=8;" parent="1" edge="1">
          <mxGeometry relative="1" as="geometry">
            <mxPoint x="850" y="560.41" as="sourcePoint" />
            <Array as="points">
              <mxPoint x="910" y="560.41" />
            </Array>
            <mxPoint x="969.5" y="560.41" as="targetPoint" />
          </mxGeometry>
        </mxCell>
        <mxCell id="RbzXPUkc1lSmBt4J0QIF-61" value="" style="endArrow=none;dashed=1;html=1;rounded=0;strokeWidth=2;" parent="1" edge="1">
          <mxGeometry width="50" height="50" relative="1" as="geometry">
            <mxPoint x="-180" y="730" as="sourcePoint" />
            <mxPoint x="1000" y="730" as="targetPoint" />
          </mxGeometry>
        </mxCell>
        <mxCell id="RbzXPUkc1lSmBt4J0QIF-62" value="&lt;font style=&quot;font-size: 9px;&quot;&gt;16 : sendNotificationOutcome&lt;/font&gt;" style="html=1;verticalAlign=bottom;endArrow=openThin;dashed=1;endSize=8;edgeStyle=elbowEdgeStyle;elbow=horizontal;curved=0;rounded=0;endFill=0;" parent="1" source="RbzXPUkc1lSmBt4J0QIF-31" edge="1">
          <mxGeometry relative="1" as="geometry">
            <mxPoint x="355" y="590.41" as="targetPoint" />
            <Array as="points">
              <mxPoint x="820" y="590.41" />
            </Array>
            <mxPoint x="694" y="600.41" as="sourcePoint" />
          </mxGeometry>
        </mxCell>
        <mxCell id="RbzXPUkc1lSmBt4J0QIF-63" value="&lt;font style=&quot;font-size: 9px;&quot;&gt;22 : showMessage(errorWhileUpdatingTournament)&lt;/font&gt;" style="html=1;verticalAlign=bottom;endArrow=openThin;dashed=1;endSize=8;edgeStyle=elbowEdgeStyle;elbow=horizontal;curved=0;rounded=0;endFill=0;" parent="1" source="RbzXPUkc1lSmBt4J0QIF-4" edge="1">
          <mxGeometry relative="1" as="geometry">
            <mxPoint x="-85" y="779.9999999999998" as="targetPoint" />
            <Array as="points">
              <mxPoint x="110" y="780" />
            </Array>
            <mxPoint x="160" y="800" as="sourcePoint" />
          </mxGeometry>
        </mxCell>
        <mxCell id="RbzXPUkc1lSmBt4J0QIF-64" value="&lt;font style=&quot;font-size: 9px;&quot;&gt;21 : outcomeMessage&lt;/font&gt;" style="html=1;verticalAlign=bottom;endArrow=openThin;dashed=1;endSize=8;edgeStyle=elbowEdgeStyle;elbow=horizontal;curved=0;rounded=0;endFill=0;" parent="1" source="RbzXPUkc1lSmBt4J0QIF-15" target="RbzXPUkc1lSmBt4J0QIF-4" edge="1">
          <mxGeometry relative="1" as="geometry">
            <mxPoint x="175" y="780" as="targetPoint" />
            <Array as="points">
              <mxPoint x="310" y="760" />
            </Array>
            <mxPoint x="325" y="780" as="sourcePoint" />
          </mxGeometry>
        </mxCell>
        <mxCell id="RbzXPUkc1lSmBt4J0QIF-65" value="" style="endArrow=none;dashed=1;html=1;rounded=0;strokeWidth=2;" parent="1" edge="1">
          <mxGeometry width="50" height="50" relative="1" as="geometry">
            <mxPoint x="-200" y="810" as="sourcePoint" />
            <mxPoint x="1010" y="810" as="targetPoint" />
          </mxGeometry>
        </mxCell>
        <mxCell id="RbzXPUkc1lSmBt4J0QIF-66" value="&lt;font style=&quot;font-size: 9px;&quot;&gt;25 : outcomeMessage&lt;/font&gt;" style="html=1;verticalAlign=bottom;endArrow=openThin;dashed=1;endSize=8;edgeStyle=elbowEdgeStyle;elbow=horizontal;curved=0;rounded=0;endFill=0;" parent="1" source="RbzXPUkc1lSmBt4J0QIF-14" target="RbzXPUkc1lSmBt4J0QIF-5" edge="1">
          <mxGeometry relative="1" as="geometry">
            <mxPoint x="164" y="960.1800000000001" as="targetPoint" />
            <Array as="points">
              <mxPoint x="260" y="917" />
            </Array>
            <mxPoint x="294" y="960.1800000000001" as="sourcePoint" />
          </mxGeometry>
        </mxCell>
        <mxCell id="RbzXPUkc1lSmBt4J0QIF-67" value="&lt;font style=&quot;font-size: 9px;&quot;&gt;26 : showMessage(permissionDenied)&lt;/font&gt;" style="html=1;verticalAlign=bottom;endArrow=openThin;dashed=1;endSize=8;edgeStyle=elbowEdgeStyle;elbow=vertical;curved=0;rounded=0;endFill=0;" parent="1" source="RbzXPUkc1lSmBt4J0QIF-5" edge="1">
          <mxGeometry relative="1" as="geometry">
            <mxPoint x="-85" y="932" as="targetPoint" />
            <Array as="points">
              <mxPoint x="60" y="932" />
            </Array>
            <mxPoint x="133" y="990.1800000000001" as="sourcePoint" />
          </mxGeometry>
        </mxCell>
        <mxCell id="RbzXPUkc1lSmBt4J0QIF-68" value="" style="endArrow=none;dashed=1;html=1;rounded=0;strokeWidth=2;" parent="1" edge="1">
          <mxGeometry width="50" height="50" relative="1" as="geometry">
            <mxPoint x="-210" y="891" as="sourcePoint" />
            <mxPoint x="1020" y="891" as="targetPoint" />
          </mxGeometry>
        </mxCell>
      </root>
    </mxGraphModel>
  </diagram>
</mxfile>
